<?xml version="1.0" standalone="no"?>
<!DOCTYPE svg PUBLIC "-//W3C//DTD SVG 20010904//EN"
 "http://www.w3.org/TR/2001/REC-SVG-20010904/DTD/svg10.dtd">
<svg version="1.0" xmlns="http://www.w3.org/2000/svg"
 width="500.000000pt" height="500.000000pt" viewBox="0 0 500.000000 500.000000"
 preserveAspectRatio="xMidYMid meet">
<metadata>
Created by potrace 1.16, written by Peter Selinger 2001-2019
</metadata>
<g transform="translate(0.000000,500.000000) scale(0.100000,-0.100000)"
fill="#000000" stroke="none">
<path d="M0 2500 l0 -2500 2500 0 2500 0 0 2500 0 2500 -2500 0 -2500 0 0
-2500z m1808 606 c13 -8 16 -84 6 -134 -6 -30 -8 -31 -48 -26 -24 3 -51 -1
-66 -8 -32 -17 -60 -73 -60 -120 l0 -38 70 0 70 0 0 -80 0 -80 -70 0 -70 0 0
-270 0 -270 -110 0 -110 0 0 270 0 270 -45 0 -45 0 0 80 0 80 44 0 43 0 7 58
c16 137 82 234 182 266 49 16 178 17 202 2z m2632 -208 l0 -202 33 31 c56 53
94 67 182 67 96 0 142 -20 203 -90 125 -141 117 -419 -15 -551 -113 -113 -295
-122 -393 -21 -37 38 -40 39 -40 17 -1 -66 -5 -69 -101 -69 l-89 0 0 510 0
510 110 0 110 0 0 -202z m-4080 -333 l0 -485 -110 0 -110 0 0 485 0 485 110 0
110 0 0 -485z m2582 93 l3 -393 193 -3 192 -2 0 -90 0 -90 -305 0 -305 0 0
485 0 485 110 0 110 0 2 -392z m-1894 128 c66 -24 101 -56 135 -125 l32 -66 3
-257 4 -258 -111 0 -111 0 0 213 c0 116 -5 229 -10 249 -20 69 -92 98 -159 63
-55 -28 -61 -60 -61 -304 l0 -221 -110 0 -110 0 0 350 0 351 93 -3 92 -3 3
-43 3 -43 46 41 c73 64 176 86 261 56z m2832 -10 c58 -22 113 -76 141 -140 21
-47 23 -71 28 -304 l6 -252 -97 0 -97 0 -7 35 -6 35 -34 -30 c-37 -32 -117
-60 -172 -60 -128 0 -222 93 -222 221 0 152 105 237 319 258 45 5 85 11 88 15
4 3 -1 22 -10 40 -11 24 -27 38 -53 46 -49 16 -146 7 -208 -20 -27 -11 -50
-19 -51 -18 -5 6 -35 116 -35 128 0 14 58 38 135 56 75 17 214 12 275 -10z"/>
<path d="M4499 2603 c-45 -38 -59 -79 -59 -175 0 -93 16 -138 63 -172 36 -26
111 -27 149 -2 68 45 95 205 49 295 -42 81 -138 107 -202 54z"/>
<path d="M3715 2395 c-52 -18 -85 -57 -85 -99 0 -65 69 -102 135 -70 49 23 64
49 71 122 l7 62 -44 0 c-24 -1 -62 -7 -84 -15z"/>
</g>
</svg>
